# xmcd
#
# Track frame offsets: 
#        150
#        13020
#        28745
#        43785
#        56067
#        72310
#        91390
#        107795
#        118725
#        136815
#        147280
#        170770
#        196980
#        213745
#        226357
#        244987
#        264742
#        286032
#
# Disc length: 4181 seconds
#
# Revision: 1
# Processed by: cddbd v1.5.2PL0 Copyright (c) Steve Scherf et al.
# Submitted via: ExactAudioCopy v1.3
#
DISCID=16105312
DTITLE=Jimi Hendrix - Voodoo Child: The Jimi Hendrix Collection
DYEAR=2001
DGENRE=Rock
TTITLE0=Purpe haze
TTITLE1=Hey Joe
TTITLE2=The Wind Cries Mary
TTITLE3=Fire
TTITLE4=Highway Chile
TTITLE5=Are You Experienced?
TTITLE6=Burning Of The Midnight Lamp
TTITLE7=Little Wing
TTITLE8=All Along The Watchtower
TTITLE9=Crosstown Traffic
TTITLE10=Voodoo Child (Slight Return)
TTITLE11=Spanish Castle Magic
TTITLE12=Stone Free
TTITLE13=Izabella
TTITLE14=Stepping Stone
TTITLE15=Angel
TTITLE16=Dolly Dagger
TTITLE17=Hey Baby (New Rising Sun)
EXTD=
EXTT0=
EXTT1=
EXTT2=
EXTT3=
EXTT4=
EXTT5=
EXTT6=
EXTT7=
EXTT8=
EXTT9=
EXTT10=
EXTT11=
EXTT12=
EXTT13=
EXTT14=
EXTT15=
EXTT16=
EXTT17=
PLAYORDER=
